<mxfile host="app.diagrams.net" modified="2023-11-11T13:18:46.116Z" agent="Mozilla/5.0 (Windows NT 10.0; Win64; x64) AppleWebKit/537.36 (KHTML, like Gecko) Chrome/119.0.0.0 Safari/537.36 Edg/119.0.0.0" etag="QlDdixp0WtEy-P86D3FU" version="22.1.0" type="device">
  <diagram id="C5RBs43oDa-KdzZeNtuy" name="Page-1">
    <mxGraphModel dx="1426" dy="1966" grid="1" gridSize="10" guides="1" tooltips="1" connect="1" arrows="1" fold="1" page="1" pageScale="1" pageWidth="827" pageHeight="1169" math="0" shadow="0">
      <root>
        <mxCell id="WIyWlLk6GJQsqaUBKTNV-0" />
        <mxCell id="WIyWlLk6GJQsqaUBKTNV-1" parent="WIyWlLk6GJQsqaUBKTNV-0" />
        <mxCell id="E3f4p9RqiSEMcC2Fn0Ri-5" style="edgeStyle=orthogonalEdgeStyle;rounded=0;orthogonalLoop=1;jettySize=auto;html=1;" edge="1" parent="WIyWlLk6GJQsqaUBKTNV-1" source="E3f4p9RqiSEMcC2Fn0Ri-0" target="E3f4p9RqiSEMcC2Fn0Ri-4">
          <mxGeometry relative="1" as="geometry" />
        </mxCell>
        <mxCell id="E3f4p9RqiSEMcC2Fn0Ri-0" value="Wurf 1" style="rounded=1;whiteSpace=wrap;html=1;" vertex="1" parent="WIyWlLk6GJQsqaUBKTNV-1">
          <mxGeometry x="120" y="80" width="120" height="60" as="geometry" />
        </mxCell>
        <mxCell id="E3f4p9RqiSEMcC2Fn0Ri-14" style="edgeStyle=orthogonalEdgeStyle;rounded=0;orthogonalLoop=1;jettySize=auto;html=1;" edge="1" parent="WIyWlLk6GJQsqaUBKTNV-1" source="E3f4p9RqiSEMcC2Fn0Ri-2" target="E3f4p9RqiSEMcC2Fn0Ri-13">
          <mxGeometry relative="1" as="geometry" />
        </mxCell>
        <mxCell id="E3f4p9RqiSEMcC2Fn0Ri-2" value="Wurf 2" style="rounded=1;whiteSpace=wrap;html=1;" vertex="1" parent="WIyWlLk6GJQsqaUBKTNV-1">
          <mxGeometry x="120" y="200" width="120" height="60" as="geometry" />
        </mxCell>
        <mxCell id="E3f4p9RqiSEMcC2Fn0Ri-32" style="edgeStyle=orthogonalEdgeStyle;rounded=0;orthogonalLoop=1;jettySize=auto;html=1;entryX=1;entryY=1;entryDx=0;entryDy=0;" edge="1" parent="WIyWlLk6GJQsqaUBKTNV-1" source="E3f4p9RqiSEMcC2Fn0Ri-3" target="E3f4p9RqiSEMcC2Fn0Ri-20">
          <mxGeometry relative="1" as="geometry" />
        </mxCell>
        <mxCell id="E3f4p9RqiSEMcC2Fn0Ri-3" value="Wurf 3" style="rounded=1;whiteSpace=wrap;html=1;" vertex="1" parent="WIyWlLk6GJQsqaUBKTNV-1">
          <mxGeometry x="120" y="310" width="120" height="60" as="geometry" />
        </mxCell>
        <mxCell id="E3f4p9RqiSEMcC2Fn0Ri-6" style="edgeStyle=orthogonalEdgeStyle;rounded=0;orthogonalLoop=1;jettySize=auto;html=1;entryX=0.5;entryY=0;entryDx=0;entryDy=0;" edge="1" parent="WIyWlLk6GJQsqaUBKTNV-1" source="E3f4p9RqiSEMcC2Fn0Ri-4" target="E3f4p9RqiSEMcC2Fn0Ri-2">
          <mxGeometry relative="1" as="geometry">
            <Array as="points">
              <mxPoint x="340" y="160" />
              <mxPoint x="180" y="160" />
            </Array>
          </mxGeometry>
        </mxCell>
        <mxCell id="E3f4p9RqiSEMcC2Fn0Ri-8" value="ja" style="edgeLabel;html=1;align=center;verticalAlign=middle;resizable=0;points=[];" vertex="1" connectable="0" parent="E3f4p9RqiSEMcC2Fn0Ri-6">
          <mxGeometry x="0.4" relative="1" as="geometry">
            <mxPoint x="57" as="offset" />
          </mxGeometry>
        </mxCell>
        <mxCell id="E3f4p9RqiSEMcC2Fn0Ri-11" style="edgeStyle=orthogonalEdgeStyle;rounded=0;orthogonalLoop=1;jettySize=auto;html=1;entryX=0;entryY=0.5;entryDx=0;entryDy=0;" edge="1" parent="WIyWlLk6GJQsqaUBKTNV-1" source="E3f4p9RqiSEMcC2Fn0Ri-4" target="E3f4p9RqiSEMcC2Fn0Ri-20">
          <mxGeometry relative="1" as="geometry">
            <mxPoint x="480" y="110" as="targetPoint" />
          </mxGeometry>
        </mxCell>
        <mxCell id="E3f4p9RqiSEMcC2Fn0Ri-12" value="nein" style="edgeLabel;html=1;align=center;verticalAlign=middle;resizable=0;points=[];" vertex="1" connectable="0" parent="E3f4p9RqiSEMcC2Fn0Ri-11">
          <mxGeometry x="-0.1143" y="3" relative="1" as="geometry">
            <mxPoint y="3" as="offset" />
          </mxGeometry>
        </mxCell>
        <mxCell id="E3f4p9RqiSEMcC2Fn0Ri-4" value="g端ltiger&lt;br&gt;W端rfel?" style="rhombus;whiteSpace=wrap;html=1;" vertex="1" parent="WIyWlLk6GJQsqaUBKTNV-1">
          <mxGeometry x="300" y="70" width="80" height="80" as="geometry" />
        </mxCell>
        <mxCell id="E3f4p9RqiSEMcC2Fn0Ri-15" style="edgeStyle=orthogonalEdgeStyle;rounded=0;orthogonalLoop=1;jettySize=auto;html=1;entryX=0.5;entryY=1;entryDx=0;entryDy=0;" edge="1" parent="WIyWlLk6GJQsqaUBKTNV-1" source="E3f4p9RqiSEMcC2Fn0Ri-13" target="E3f4p9RqiSEMcC2Fn0Ri-20">
          <mxGeometry relative="1" as="geometry">
            <mxPoint x="510" y="140" as="targetPoint" />
          </mxGeometry>
        </mxCell>
        <mxCell id="E3f4p9RqiSEMcC2Fn0Ri-16" value="nein" style="edgeLabel;html=1;align=center;verticalAlign=middle;resizable=0;points=[];" vertex="1" connectable="0" parent="E3f4p9RqiSEMcC2Fn0Ri-15">
          <mxGeometry x="-0.3818" y="3" relative="1" as="geometry">
            <mxPoint x="-8" y="3" as="offset" />
          </mxGeometry>
        </mxCell>
        <mxCell id="E3f4p9RqiSEMcC2Fn0Ri-17" style="edgeStyle=orthogonalEdgeStyle;rounded=0;orthogonalLoop=1;jettySize=auto;html=1;entryX=0.5;entryY=0;entryDx=0;entryDy=0;" edge="1" parent="WIyWlLk6GJQsqaUBKTNV-1" source="E3f4p9RqiSEMcC2Fn0Ri-13" target="E3f4p9RqiSEMcC2Fn0Ri-3">
          <mxGeometry relative="1" as="geometry">
            <Array as="points">
              <mxPoint x="340" y="290" />
              <mxPoint x="180" y="290" />
            </Array>
          </mxGeometry>
        </mxCell>
        <mxCell id="E3f4p9RqiSEMcC2Fn0Ri-18" value="ja" style="edgeLabel;html=1;align=center;verticalAlign=middle;resizable=0;points=[];" vertex="1" connectable="0" parent="E3f4p9RqiSEMcC2Fn0Ri-17">
          <mxGeometry x="-0.13" relative="1" as="geometry">
            <mxPoint x="-13" as="offset" />
          </mxGeometry>
        </mxCell>
        <mxCell id="E3f4p9RqiSEMcC2Fn0Ri-13" value="g端ltiger&lt;br style=&quot;border-color: var(--border-color);&quot;&gt;W端rfel?" style="rhombus;whiteSpace=wrap;html=1;" vertex="1" parent="WIyWlLk6GJQsqaUBKTNV-1">
          <mxGeometry x="300" y="190" width="80" height="80" as="geometry" />
        </mxCell>
        <mxCell id="E3f4p9RqiSEMcC2Fn0Ri-22" style="edgeStyle=orthogonalEdgeStyle;rounded=0;orthogonalLoop=1;jettySize=auto;html=1;" edge="1" parent="WIyWlLk6GJQsqaUBKTNV-1" source="E3f4p9RqiSEMcC2Fn0Ri-20" target="E3f4p9RqiSEMcC2Fn0Ri-21">
          <mxGeometry relative="1" as="geometry" />
        </mxCell>
        <mxCell id="E3f4p9RqiSEMcC2Fn0Ri-23" value="ja" style="edgeLabel;html=1;align=center;verticalAlign=middle;resizable=0;points=[];" vertex="1" connectable="0" parent="E3f4p9RqiSEMcC2Fn0Ri-22">
          <mxGeometry y="2" relative="1" as="geometry">
            <mxPoint x="2" as="offset" />
          </mxGeometry>
        </mxCell>
        <mxCell id="E3f4p9RqiSEMcC2Fn0Ri-25" style="edgeStyle=orthogonalEdgeStyle;rounded=0;orthogonalLoop=1;jettySize=auto;html=1;entryX=0;entryY=0.5;entryDx=0;entryDy=0;" edge="1" parent="WIyWlLk6GJQsqaUBKTNV-1" source="E3f4p9RqiSEMcC2Fn0Ri-20" target="E3f4p9RqiSEMcC2Fn0Ri-24">
          <mxGeometry relative="1" as="geometry" />
        </mxCell>
        <mxCell id="E3f4p9RqiSEMcC2Fn0Ri-26" value="nein" style="edgeLabel;html=1;align=center;verticalAlign=middle;resizable=0;points=[];" vertex="1" connectable="0" parent="E3f4p9RqiSEMcC2Fn0Ri-25">
          <mxGeometry x="-0.2" y="-1" relative="1" as="geometry">
            <mxPoint y="-1" as="offset" />
          </mxGeometry>
        </mxCell>
        <mxCell id="E3f4p9RqiSEMcC2Fn0Ri-20" value="Extra Wahl&lt;br&gt;Boni?" style="rhombus;whiteSpace=wrap;html=1;" vertex="1" parent="WIyWlLk6GJQsqaUBKTNV-1">
          <mxGeometry x="470" y="70" width="80" height="80" as="geometry" />
        </mxCell>
        <mxCell id="E3f4p9RqiSEMcC2Fn0Ri-27" style="edgeStyle=orthogonalEdgeStyle;rounded=0;orthogonalLoop=1;jettySize=auto;html=1;entryX=0.5;entryY=0;entryDx=0;entryDy=0;" edge="1" parent="WIyWlLk6GJQsqaUBKTNV-1" source="E3f4p9RqiSEMcC2Fn0Ri-21" target="E3f4p9RqiSEMcC2Fn0Ri-24">
          <mxGeometry relative="1" as="geometry" />
        </mxCell>
        <mxCell id="E3f4p9RqiSEMcC2Fn0Ri-21" value="Extra Wahlen bis kein Boni mehr vorhanden oder der Spieler passt" style="rounded=1;whiteSpace=wrap;html=1;" vertex="1" parent="WIyWlLk6GJQsqaUBKTNV-1">
          <mxGeometry x="450" y="-30" width="120" height="60" as="geometry" />
        </mxCell>
        <mxCell id="E3f4p9RqiSEMcC2Fn0Ri-29" style="edgeStyle=orthogonalEdgeStyle;rounded=0;orthogonalLoop=1;jettySize=auto;html=1;entryX=0.5;entryY=0;entryDx=0;entryDy=0;" edge="1" parent="WIyWlLk6GJQsqaUBKTNV-1" source="E3f4p9RqiSEMcC2Fn0Ri-24" target="E3f4p9RqiSEMcC2Fn0Ri-28">
          <mxGeometry relative="1" as="geometry" />
        </mxCell>
        <mxCell id="E3f4p9RqiSEMcC2Fn0Ri-24" value="Wahl vom Silbertablett" style="rounded=1;whiteSpace=wrap;html=1;" vertex="1" parent="WIyWlLk6GJQsqaUBKTNV-1">
          <mxGeometry x="600" y="80" width="120" height="60" as="geometry" />
        </mxCell>
        <mxCell id="E3f4p9RqiSEMcC2Fn0Ri-30" style="edgeStyle=orthogonalEdgeStyle;rounded=0;orthogonalLoop=1;jettySize=auto;html=1;entryX=0.5;entryY=0;entryDx=0;entryDy=0;" edge="1" parent="WIyWlLk6GJQsqaUBKTNV-1" source="E3f4p9RqiSEMcC2Fn0Ri-28" target="E3f4p9RqiSEMcC2Fn0Ri-0">
          <mxGeometry relative="1" as="geometry">
            <mxPoint x="760" y="-80" as="targetPoint" />
            <Array as="points">
              <mxPoint x="800" y="240" />
              <mxPoint x="800" y="-80" />
              <mxPoint x="180" y="-80" />
            </Array>
          </mxGeometry>
        </mxCell>
        <mxCell id="E3f4p9RqiSEMcC2Fn0Ri-31" value="nein" style="edgeLabel;html=1;align=center;verticalAlign=middle;resizable=0;points=[];" vertex="1" connectable="0" parent="E3f4p9RqiSEMcC2Fn0Ri-30">
          <mxGeometry x="-0.9161" y="-2" relative="1" as="geometry">
            <mxPoint x="-2" y="-2" as="offset" />
          </mxGeometry>
        </mxCell>
        <mxCell id="E3f4p9RqiSEMcC2Fn0Ri-34" style="edgeStyle=orthogonalEdgeStyle;rounded=0;orthogonalLoop=1;jettySize=auto;html=1;entryX=1;entryY=0.5;entryDx=0;entryDy=0;" edge="1" parent="WIyWlLk6GJQsqaUBKTNV-1" source="E3f4p9RqiSEMcC2Fn0Ri-28" target="E3f4p9RqiSEMcC2Fn0Ri-33">
          <mxGeometry relative="1" as="geometry">
            <Array as="points">
              <mxPoint x="660" y="440" />
            </Array>
          </mxGeometry>
        </mxCell>
        <mxCell id="E3f4p9RqiSEMcC2Fn0Ri-35" value="ja" style="edgeLabel;html=1;align=center;verticalAlign=middle;resizable=0;points=[];" vertex="1" connectable="0" parent="E3f4p9RqiSEMcC2Fn0Ri-34">
          <mxGeometry x="-0.8724" y="1" relative="1" as="geometry">
            <mxPoint as="offset" />
          </mxGeometry>
        </mxCell>
        <mxCell id="E3f4p9RqiSEMcC2Fn0Ri-28" value="Extra Wahl&lt;br style=&quot;border-color: var(--border-color);&quot;&gt;Boni?" style="rhombus;whiteSpace=wrap;html=1;" vertex="1" parent="WIyWlLk6GJQsqaUBKTNV-1">
          <mxGeometry x="620" y="200" width="80" height="80" as="geometry" />
        </mxCell>
        <mxCell id="E3f4p9RqiSEMcC2Fn0Ri-36" style="edgeStyle=orthogonalEdgeStyle;rounded=0;orthogonalLoop=1;jettySize=auto;html=1;entryX=0;entryY=0.5;entryDx=0;entryDy=0;" edge="1" parent="WIyWlLk6GJQsqaUBKTNV-1" source="E3f4p9RqiSEMcC2Fn0Ri-33" target="E3f4p9RqiSEMcC2Fn0Ri-0">
          <mxGeometry relative="1" as="geometry">
            <Array as="points">
              <mxPoint x="80" y="440" />
              <mxPoint x="80" y="110" />
            </Array>
          </mxGeometry>
        </mxCell>
        <mxCell id="E3f4p9RqiSEMcC2Fn0Ri-33" value="Extra Wahlen bis kein Boni mehr vorhanden oder der Spieler passt" style="rounded=1;whiteSpace=wrap;html=1;" vertex="1" parent="WIyWlLk6GJQsqaUBKTNV-1">
          <mxGeometry x="120" y="410" width="120" height="60" as="geometry" />
        </mxCell>
      </root>
    </mxGraphModel>
  </diagram>
</mxfile>
